<?xml version="1.0" encoding="UTF-8"?>
<svg xmlns="http://www.w3.org/2000/svg" xmlns:xlink="http://www.w3.org/1999/xlink" width="75pt" height="75pt" viewBox="0 0 75 75" version="1.1">
<g id="surface203">
<path style=" stroke:none;fill-rule:nonzero;fill:rgb(22.745098%,47.058824%,54.901963%);fill-opacity:1;" d="M 44.40625 21.976562 L 30.34375 21.976562 C 29.320312 21.976562 28.367188 21.457031 27.8125 20.597656 C 27.257812 19.738281 27.179688 18.65625 27.601562 17.726562 C 27.867188 17.046875 28.207031 16.394531 28.617188 15.789062 C 30.546875 12.835938 33.839844 11.054688 37.367188 11.054688 C 40.894531 11.054688 44.1875 12.835938 46.117188 15.789062 C 46.515625 16.402344 46.855469 17.050781 47.132812 17.726562 C 47.554688 18.65625 47.476562 19.734375 46.925781 20.59375 C 46.375 21.453125 45.425781 21.972656 44.40625 21.976562 Z M 44.40625 21.976562 "/>
<path style=" stroke:none;fill-rule:nonzero;fill:rgb(22.745098%,60.784316%,54.901963%);fill-opacity:1;" d="M 43.679688 19.617188 L 31.085938 19.617188 C 30.164062 19.621094 29.304688 19.152344 28.808594 18.375 C 28.3125 17.601562 28.246094 16.625 28.632812 15.789062 C 30.5625 12.835938 33.855469 11.054688 37.382812 11.054688 C 40.910156 11.054688 44.203125 12.835938 46.132812 15.789062 C 46.515625 16.625 46.445312 17.597656 45.949219 18.371094 C 45.453125 19.148438 44.597656 19.617188 43.679688 19.617188 Z M 43.679688 19.617188 "/>
<path style=" stroke:none;fill-rule:nonzero;fill:rgb(22.745098%,74.509805%,54.901963%);fill-opacity:1;" d="M 40.710938 15.78125 C 41.144531 15.78125 41.523438 15.488281 41.636719 15.070312 C 41.75 14.652344 41.566406 14.210938 41.195312 13.992188 C 38.824219 12.738281 35.988281 12.738281 33.617188 13.992188 C 33.21875 14.191406 33.007812 14.640625 33.113281 15.074219 C 33.214844 15.507812 33.601562 15.8125 34.046875 15.8125 Z M 40.710938 15.78125 "/>
<path style=" stroke:none;fill-rule:nonzero;fill:rgb(24.705882%,21.568628%,33.333334%);fill-opacity:1;" d="M 40.460938 40.90625 L 34.304688 40.90625 C 31.9375 40.898438 29.675781 39.917969 28.050781 38.199219 C 26.425781 36.476562 25.582031 34.160156 25.710938 31.796875 C 26.046875 25.71875 25.992188 26.703125 26.015625 26.257812 C 26.152344 23.855469 28.140625 21.976562 30.546875 21.976562 L 44.242188 21.976562 C 46.648438 21.976562 48.636719 23.855469 48.773438 26.257812 C 48.773438 26.734375 48.773438 25.8125 49.078125 31.796875 C 49.210938 34.164062 48.359375 36.484375 46.730469 38.207031 C 45.101562 39.929688 42.832031 40.90625 40.460938 40.90625 Z M 40.460938 40.90625 "/>
<path style=" stroke:none;fill-rule:nonzero;fill:rgb(18.82353%,17.647059%,25.490198%);fill-opacity:1;" d="M 41.875 40.773438 C 41.875 40.96875 38.226562 40.90625 34.304688 40.90625 C 30.773438 40.914062 27.597656 38.765625 26.296875 35.484375 L 32.9375 35.484375 L 32.9375 28.835938 C 32.9375 28.1875 33.460938 27.664062 34.109375 27.664062 C 34.757812 27.664062 35.28125 28.1875 35.28125 28.835938 L 35.28125 34.375 C 35.28125 34.976562 35.765625 35.460938 36.367188 35.460938 L 38.445312 35.460938 C 39.035156 35.449219 39.507812 34.964844 39.507812 34.375 L 39.507812 28.859375 C 39.433594 28.394531 39.636719 27.929688 40.03125 27.671875 C 40.425781 27.414062 40.933594 27.414062 41.328125 27.671875 C 41.722656 27.929688 41.925781 28.394531 41.851562 28.859375 L 41.851562 35.484375 L 48.4375 35.484375 C 47.316406 38.265625 44.832031 40.269531 41.875 40.773438 Z M 41.875 40.773438 "/>
<path style=" stroke:none;fill-rule:nonzero;fill:rgb(24.705882%,21.568628%,33.333334%);fill-opacity:1;" d="M 46.546875 60.03125 C 41.125 71.445312 42.28125 69 40.796875 72.140625 C 40.332031 73.125 39.464844 73.863281 38.417969 74.160156 C 37.371094 74.460938 36.242188 74.292969 35.328125 73.703125 C 34.171875 72.976562 33.960938 72.140625 32.796875 69.726562 L 28.1875 60.007812 C 26.515625 56.460938 26.160156 52.433594 27.1875 48.648438 C 27.714844 46.847656 28.464844 45.121094 29.421875 43.507812 C 30.253906 41.90625 31.90625 40.902344 33.710938 40.90625 L 41.054688 40.90625 C 42.847656 40.914062 44.488281 41.917969 45.3125 43.507812 C 46.382812 45.570312 47.46875 47.453125 47.882812 50.226562 C 47.988281 50.859375 48.058594 51.492188 48.09375 52.132812 C 48.238281 54.851562 47.707031 57.566406 46.546875 60.03125 Z M 46.546875 60.03125 "/>
<path style=" stroke:none;fill-rule:nonzero;fill:rgb(18.82353%,17.647059%,25.490198%);fill-opacity:1;" d="M 46.546875 60.03125 L 41.9375 69.734375 C 41.671875 69.050781 41.515625 68.332031 41.46875 67.601562 C 40.320312 51.296875 39.65625 42.265625 39.601562 40.90625 C 40.359375 40.859375 41.121094 40.886719 41.875 40.984375 L 41.875 47.398438 L 47.1875 47.398438 C 48.65625 51.527344 48.425781 56.070312 46.546875 60.03125 Z M 46.546875 60.03125 "/>
<path style=" stroke:none;fill-rule:nonzero;fill:rgb(18.82353%,17.647059%,25.490198%);fill-opacity:1;" d="M 35.15625 40.90625 C 35.101562 42.085938 33.59375 62.71875 33.59375 62.78125 C 33.265625 67.46875 33.296875 68.4375 32.8125 69.71875 L 28.203125 60 C 26.066406 55.511719 26.066406 50.300781 28.203125 45.8125 L 32.890625 45.8125 L 32.890625 40.976562 C 33.640625 40.886719 34.402344 40.863281 35.15625 40.90625 Z M 35.15625 40.90625 "/>
<path style=" stroke:none;fill-rule:nonzero;fill:rgb(22.745098%,60.784316%,54.901963%);fill-opacity:1;" d="M 48.125 52.085938 C 48.125 52.164062 49.773438 52.132812 26.640625 52.132812 C 26.640625 51.960938 26.640625 51.484375 26.710938 51.25 C 27.015625 47.796875 28.351562 45.554688 29.421875 43.507812 C 30.253906 41.90625 31.90625 40.902344 33.710938 40.90625 L 41.054688 40.90625 C 42.847656 40.914062 44.488281 41.917969 45.3125 43.507812 C 46.484375 45.710938 47.898438 48.054688 48.125 52.085938 Z M 48.125 52.085938 "/>
<path style=" stroke:none;fill-rule:nonzero;fill:rgb(18.82353%,47.058824%,54.901963%);fill-opacity:1;" d="M 48.125 52.085938 C 48.125 52.164062 48.71875 52.132812 40.375 52.132812 C 40.203125 49.734375 39.921875 45.765625 39.929688 45.882812 C 39.871094 45.121094 39.238281 44.53125 38.476562 44.53125 L 36.28125 44.53125 C 35.515625 44.535156 34.882812 45.125 34.828125 45.890625 L 34.390625 52.140625 C 26.039062 52.140625 26.640625 52.140625 26.640625 52.09375 C 26.851562 48.1875 28.125 45.992188 29.421875 43.5 C 30.253906 41.898438 31.90625 40.894531 33.710938 40.898438 L 41.054688 40.898438 C 42.863281 40.902344 44.523438 41.914062 45.351562 43.523438 C 46.476562 45.71875 47.898438 48 48.125 52.085938 Z M 48.125 52.085938 "/>
<path style=" stroke:none;fill-rule:nonzero;fill:rgb(100%,78.431374%,30.19608%);fill-opacity:1;" d="M 27.921875 59.320312 C 28.40625 60.476562 27.101562 57.703125 32.445312 68.96875 L 42.304688 68.96875 C 47.65625 57.710938 46.351562 60.476562 46.875 59.320312 Z M 27.921875 59.320312 "/>
<path style=" stroke:none;fill-rule:nonzero;fill:rgb(100%,58.823532%,30.19608%);fill-opacity:1;" d="M 27.921875 59.320312 L 33.882812 59.320312 C 33.234375 68.304688 33.320312 68.023438 33.101562 68.96875 L 32.484375 68.96875 C 26.8125 57.078125 28.492188 60.648438 27.921875 59.320312 Z M 27.921875 59.320312 "/>
<path style=" stroke:none;fill-rule:nonzero;fill:rgb(100%,58.823532%,30.19608%);fill-opacity:1;" d="M 46.875 59.320312 C 46.265625 60.726562 48 57.046875 42.34375 68.96875 L 41.734375 68.96875 C 41.460938 67.953125 41.570312 68.1875 40.953125 59.320312 Z M 46.875 59.320312 "/>
<path style=" stroke:none;fill-rule:nonzero;fill:rgb(100%,90.196079%,45.882353%);fill-opacity:1;" d="M 35.773438 65.78125 L 36.007812 62.40625 C 36.027344 61.988281 36.371094 61.664062 36.789062 61.664062 L 37.953125 61.664062 C 38.371094 61.664062 38.714844 61.988281 38.734375 62.40625 L 38.976562 65.78125 C 38.992188 66 38.917969 66.214844 38.769531 66.375 C 38.621094 66.535156 38.414062 66.625 38.195312 66.625 L 36.5625 66.625 C 36.34375 66.628906 36.132812 66.539062 35.980469 66.378906 C 35.832031 66.21875 35.753906 66 35.773438 65.78125 Z M 35.773438 65.78125 "/>
<path style=" stroke:none;fill-rule:nonzero;fill:rgb(94.117647%,94.117647%,100%);fill-opacity:1;" d="M 32.914062 27.1875 C 32.914062 43.375 33.25 34.726562 30.960938 67.4375 C 30.828125 69.328125 29.617188 70.972656 27.851562 71.65625 C 26.085938 72.34375 24.082031 71.945312 22.710938 70.640625 C 19.53125 67.632812 20.570312 68.601562 19.007812 67.117188 C 15.4375 63.726562 13.886719 58.722656 14.90625 53.90625 C 15.609375 50.546875 15.328125 51.914062 16.164062 47.914062 C 17 43.914062 17.5 40.25 21.09375 36.023438 C 30.289062 25.085938 29.8125 25.5625 30.46875 25.367188 C 31.042969 25.195312 31.667969 25.304688 32.148438 25.664062 C 32.632812 26.019531 32.914062 26.585938 32.914062 27.1875 Z M 32.914062 27.1875 "/>
<path style=" stroke:none;fill-rule:nonzero;fill:rgb(100%,100%,100%);fill-opacity:1;" d="M 28.90625 52.390625 C 28.765625 54.171875 27.945312 65.9375 27.859375 67.234375 C 27.8125 67.917969 27.375 68.515625 26.734375 68.761719 C 26.09375 69.011719 25.371094 68.867188 24.875 68.390625 C 21.21875 64.921875 21.546875 65.195312 21.171875 64.859375 C 19.5 63.273438 18.371094 61.199219 17.9375 58.9375 C 17.40625 56.304688 18.007812 54.414062 18.578125 51.726562 C 18.820312 50.589844 19.824219 49.777344 20.984375 49.773438 L 26.453125 49.773438 C 27.132812 49.773438 27.78125 50.054688 28.246094 50.550781 C 28.710938 51.046875 28.949219 51.710938 28.90625 52.390625 Z M 28.90625 52.390625 "/>
<path style=" stroke:none;fill-rule:nonzero;fill:rgb(94.117647%,94.117647%,100%);fill-opacity:1;" d="M 41.84375 27.1875 C 41.84375 43.375 41.507812 34.726562 43.796875 67.4375 C 43.929688 69.328125 45.140625 70.972656 46.90625 71.65625 C 48.671875 72.34375 50.675781 71.945312 52.046875 70.640625 C 55.226562 67.632812 54.1875 68.601562 55.75 67.117188 C 59.320312 63.726562 60.871094 58.722656 59.851562 53.90625 C 59.148438 50.546875 59.4375 51.914062 58.59375 47.914062 C 57.75 43.914062 57.265625 40.226562 53.6875 36 C 44.492188 25.0625 44.976562 25.539062 44.3125 25.34375 C 43.730469 25.160156 43.09375 25.269531 42.605469 25.632812 C 42.117188 26 41.832031 26.578125 41.84375 27.1875 Z M 41.84375 27.1875 "/>
<path style=" stroke:none;fill-rule:nonzero;fill:rgb(100%,100%,100%);fill-opacity:1;" d="M 56.84375 58.898438 C 56.40625 61.167969 55.273438 63.246094 53.601562 64.84375 C 53.390625 65.03125 52.679688 65.726562 49.90625 68.367188 C 49.40625 68.84375 48.675781 68.988281 48.035156 68.734375 C 47.394531 68.480469 46.960938 67.875 46.921875 67.1875 C 46.921875 67.109375 46.03125 54.492188 45.875 52.34375 C 45.824219 51.664062 46.0625 50.992188 46.527344 50.492188 C 46.992188 49.992188 47.644531 49.710938 48.328125 49.710938 L 53.796875 49.710938 C 54.957031 49.714844 55.960938 50.527344 56.203125 51.664062 C 56.757812 54.414062 57.359375 56.375 56.84375 58.898438 Z M 56.84375 58.898438 "/>
<path style=" stroke:none;fill-rule:nonzero;fill:rgb(18.82353%,17.647059%,23.921569%);fill-opacity:1;" d="M 37.5 34.804688 C 37.929688 34.804688 38.28125 34.453125 38.28125 34.023438 L 38.28125 27.273438 C 38.28125 26.84375 37.929688 26.492188 37.5 26.492188 C 37.070312 26.492188 36.71875 26.84375 36.71875 27.273438 L 36.71875 34.023438 C 36.71875 34.453125 37.070312 34.804688 37.5 34.804688 Z M 37.5 34.804688 "/>
<path style=" stroke:none;fill-rule:nonzero;fill:rgb(18.82353%,17.647059%,23.921569%);fill-opacity:1;" d="M 60.742188 53.6875 C 58.398438 42.375 60.398438 52.070312 58.789062 44.414062 C 58.09375 41.101562 56.589844 38.015625 54.40625 35.429688 L 49.890625 30.078125 L 49.664062 26.125 C 49.566406 24.308594 48.539062 22.667969 46.945312 21.789062 C 48.257812 20.703125 48.679688 18.871094 47.976562 17.320312 L 47.726562 16.773438 C 46.53125 14.148438 44.371094 12.082031 41.695312 11.007812 C 41.957031 5.738281 46.289062 1.59375 51.5625 1.5625 C 51.992188 1.5625 52.34375 1.210938 52.34375 0.78125 C 52.34375 0.351562 51.992188 0 51.5625 0 C 45.617188 0.0234375 40.667969 4.582031 40.164062 10.507812 C 38.414062 10.070312 36.585938 10.070312 34.835938 10.507812 C 34.332031 4.582031 29.382812 0.0234375 23.4375 0 C 23.007812 0 22.65625 0.351562 22.65625 0.78125 C 22.65625 1.210938 23.007812 1.5625 23.4375 1.5625 C 28.710938 1.59375 33.042969 5.738281 33.304688 11.007812 C 30.628906 12.082031 28.46875 14.148438 27.273438 16.773438 L 27.023438 17.320312 C 26.316406 18.871094 26.738281 20.703125 28.054688 21.789062 C 26.460938 22.667969 25.433594 24.308594 25.335938 26.125 L 25.109375 30.078125 L 20.59375 35.429688 C 18.410156 38.015625 16.90625 41.101562 16.210938 44.414062 C 15.8125 46.320312 16.359375 43.703125 14.257812 53.6875 C 13.171875 58.761719 14.8125 64.035156 18.585938 67.59375 L 22.289062 71.09375 C 23.710938 72.441406 25.726562 72.964844 27.621094 72.472656 C 29.519531 71.980469 31.027344 70.546875 31.617188 68.679688 C 32.046875 69.59375 32.789062 71.148438 33.367188 72.367188 C 34.125 73.957031 35.730469 74.96875 37.492188 74.96875 C 39.253906 74.96875 40.859375 73.957031 41.617188 72.367188 L 43.078125 69.289062 C 43.078125 69.289062 43.203125 69.039062 43.367188 68.695312 C 43.953125 70.570312 45.46875 72.007812 47.371094 72.496094 C 49.273438 72.984375 51.292969 72.457031 52.710938 71.09375 L 56.414062 67.570312 C 60.179688 64.015625 61.820312 58.753906 60.742188 53.6875 Z M 53.21875 36.445312 C 55.230469 38.832031 56.621094 41.679688 57.265625 44.734375 L 57.648438 46.546875 L 54.273438 42.429688 C 54 42.09375 53.507812 42.046875 53.171875 42.320312 C 52.835938 42.59375 52.789062 43.085938 53.0625 43.421875 L 58.34375 49.859375 C 59.195312 53.9375 59.75 55.695312 59.398438 58.453125 L 51.789062 47.445312 C 49.984375 44.832031 48.78125 41.855469 48.257812 38.726562 L 46.5625 28.570312 Z M 30.40625 26.289062 C 30.734375 26 31.203125 25.929688 31.601562 26.113281 C 32 26.292969 32.253906 26.695312 32.25 27.132812 C 32.25 39.757812 32.320312 38.765625 31.921875 44.40625 L 28.421875 51.164062 L 26.414062 45.015625 C 28.210938 41.140625 28.234375 39.265625 30.40625 26.257812 Z M 41.34375 41.640625 C 41.34375 41.976562 41.34375 41.773438 42.015625 51.296875 L 33 51.296875 C 33.554688 43.4375 33.453125 44.882812 33.46875 44.679688 C 33.601562 42.789062 33.664062 41.945312 33.671875 41.640625 C 33.773438 41.59375 41.25 41.601562 41.328125 41.609375 Z M 42.523438 58.484375 L 32.492188 58.484375 L 32.890625 52.859375 L 42.109375 52.859375 Z M 31.664062 48.328125 C 31.5625 49.734375 30.882812 59.320312 30.78125 60.828125 L 25.78125 59.625 Z M 32.398438 60.046875 L 42.632812 60.046875 L 43.039062 65.820312 L 41.945312 68.164062 L 33.0625 68.164062 L 31.96875 65.867188 Z M 43.335938 48.328125 C 49.539062 60.304688 47.421875 56.210938 49.195312 59.648438 L 44.21875 60.835938 C 43.984375 57.226562 44.195312 60.265625 43.351562 48.304688 Z M 43.0625 44.421875 C 42.65625 38.71875 42.734375 39.734375 42.734375 27.148438 C 42.730469 26.710938 42.984375 26.308594 43.382812 26.128906 C 43.78125 25.945312 44.25 26.015625 44.578125 26.304688 L 46.710938 38.984375 C 47.066406 41.058594 47.695312 43.078125 48.585938 44.984375 L 46.578125 51.132812 Z M 28.453125 17.96875 L 28.695312 17.421875 C 30.265625 13.96875 33.707031 11.753906 37.5 11.753906 C 41.292969 11.753906 44.734375 13.96875 46.304688 17.421875 L 46.546875 17.96875 C 46.847656 18.652344 46.785156 19.445312 46.378906 20.074219 C 45.976562 20.703125 45.28125 21.085938 44.53125 21.09375 L 30.46875 21.09375 C 29.71875 21.085938 29.023438 20.703125 28.621094 20.074219 C 28.214844 19.445312 28.152344 18.652344 28.453125 17.96875 Z M 26.890625 26.226562 C 26.988281 24.226562 28.636719 22.652344 30.640625 22.65625 L 44.359375 22.65625 C 46.355469 22.652344 48 24.210938 48.109375 26.203125 L 48.210938 28.078125 L 45.914062 25.359375 C 45.1875 24.5 44.003906 24.1875 42.949219 24.570312 C 41.890625 24.957031 41.1875 25.960938 41.1875 27.085938 C 41.1875 36.257812 41.1875 38.109375 41.25 39.992188 C 40.703125 40.054688 34.21875 40.039062 33.75 39.992188 C 33.835938 38.257812 33.8125 37.890625 33.8125 27.085938 C 33.8125 25.960938 33.109375 24.957031 32.050781 24.570312 C 30.996094 24.1875 29.8125 24.5 29.085938 25.359375 L 26.789062 28.125 Z M 21.78125 36.445312 C 28.070312 29 24.90625 32.726562 28.4375 28.5625 L 26.742188 38.71875 C 26.21875 41.847656 25.015625 44.824219 23.210938 47.4375 L 15.625 58.476562 C 15.265625 55.640625 15.828125 53.929688 16.679688 49.882812 L 21.960938 43.445312 C 22.234375 43.109375 22.1875 42.617188 21.851562 42.34375 C 21.515625 42.070312 21.023438 42.117188 20.75 42.453125 L 17.375 46.570312 L 17.757812 44.757812 C 18.390625 41.695312 19.773438 38.839844 21.78125 36.445312 Z M 16.046875 60.585938 C 25.507812 46.875 24.742188 48.023438 25.398438 46.875 L 27.414062 53.125 L 20.21875 66.984375 L 19.664062 66.460938 C 17.964844 64.851562 16.71875 62.828125 16.046875 60.585938 Z M 30.304688 67.296875 C 30.195312 68.886719 29.175781 70.269531 27.691406 70.84375 C 26.203125 71.417969 24.519531 71.085938 23.367188 69.984375 L 21.398438 68.109375 L 25.046875 61.078125 L 30.648438 62.414062 C 30.46875 64.539062 30.515625 64.367188 30.304688 67.296875 Z M 40.210938 71.71875 C 39.710938 72.765625 38.65625 73.433594 37.496094 73.433594 C 36.335938 73.433594 35.28125 72.765625 34.78125 71.71875 L 33.804688 69.664062 L 41.1875 69.664062 Z M 51.632812 69.984375 C 50.480469 71.085938 48.796875 71.417969 47.308594 70.84375 C 45.824219 70.269531 44.804688 68.886719 44.695312 67.296875 C 44.65625 66.71875 44.414062 63.34375 44.34375 62.390625 L 49.953125 61.054688 L 53.601562 68.085938 Z M 55.335938 66.460938 L 54.78125 66.984375 L 47.585938 53.125 L 49.601562 46.875 C 50.265625 48.007812 49.648438 47.070312 58.976562 60.554688 C 58.304688 62.808594 57.046875 64.847656 55.335938 66.460938 Z M 55.335938 66.460938 "/>
</g>
</svg>
